<?xml version="1.0" encoding="UTF-8"?>
<!--
  PortGuard Horizontal Lockup
  Canvas: 350 × 70
  Layout:
    Ship icon:  x=4–88,  y=8–55  (scaled group, scale=0.47 of the 200×120 icon)
    Gap:        x=88–98
    Wordmark:   "PORTGUARD"  x=98, baseline y=38, Inter 800, 25px, tracking 2.2px
    Tagline:    "Autonomous Customs Intelligence"
                x=99, baseline y=53, Inter 500, 9px, tracking 1.5px
  Optimized for dark navy backgrounds.
-->
<svg xmlns="http://www.w3.org/2000/svg" viewBox="0 0 350 70" fill="none"
     role="img" aria-label="PortGuard — Autonomous Customs Intelligence">

  <defs>
    <!-- Hull gradient (re-scoped for lockup context) -->
    <linearGradient id="lk-hull" x1="0" y1="30.6" x2="0" y2="40.9"
                    gradientUnits="userSpaceOnUse">
      <stop offset="0%"   stop-color="#1B9AAA"/>
      <stop offset="52%"  stop-color="#0D7A8A"/>
      <stop offset="100%" stop-color="#072B30"/>
    </linearGradient>
    <linearGradient id="lk-bridge" x1="0" y1="21.2" x2="0" y2="30.6"
                    gradientUnits="userSpaceOnUse">
      <stop offset="0%"   stop-color="#1E3A6E"/>
      <stop offset="100%" stop-color="#0F2040"/>
    </linearGradient>
  </defs>

  <!-- ═══════════════════════════════════════════════════════
       SHIP ICON — all original coordinates × 0.47
       Origin translated to (4, 11) after scaling
       transform="translate(4,11) scale(0.47) translate(-8,-25)"
       ═══════════════════════════════════════════════════════ -->
  <g transform="translate(4,11) scale(0.47) translate(-8,-25)">

    <!-- Water glow -->
    <ellipse cx="92" cy="94" rx="88" ry="13" fill="#1B9AAA" opacity="0.18"/>
    <ellipse cx="92" cy="91" rx="66" ry="7"  fill="#22B5C8" opacity="0.10"/>

    <!-- Wake ripples -->
    <line x1="12"  y1="98"  x2="178" y2="98"
          stroke="#4DCFDF" stroke-width="1.3" stroke-linecap="round" opacity="0.22"/>
    <line x1="26"  y1="103" x2="164" y2="103"
          stroke="#4DCFDF" stroke-width="0.85" stroke-linecap="round" opacity="0.14"/>
    <line x1="40"  y1="108" x2="150" y2="108"
          stroke="#4DCFDF" stroke-width="0.6"  stroke-linecap="round" opacity="0.08"/>

    <!-- Hull silhouette -->
    <path d="M 22,65 L 8,78 L 12,87 L 173,87 L 176,77 L 167,65 Z"
          fill="url(#lk-hull)"/>
    <!-- Keel accent -->
    <path d="M 12,84 L 10,80 L 8,78 L 12,87 L 173,87 L 176,84 Z"
          fill="#041520" opacity="0.55"/>
    <!-- Waterline -->
    <line x1="10"  y1="79" x2="175" y2="79"
          stroke="#4DCFDF" stroke-width="1.5" stroke-linecap="round" opacity="0.68"/>
    <!-- Deck edge -->
    <line x1="22"  y1="65" x2="167" y2="65"
          stroke="#22B5C8" stroke-width="0.8" opacity="0.28"/>

    <!-- Bridge -->
    <rect x="135" y="45" width="28" height="20" rx="2" fill="url(#lk-bridge)"/>
    <rect x="135" y="45" width="28" height="3.5" rx="1" fill="#22B5C8" opacity="0.38"/>
    <rect x="139" y="52" width="4"   height="3.5" rx="0.5" fill="#4DCFDF" opacity="0.58"/>
    <rect x="146" y="52" width="4"   height="3.5" rx="0.5" fill="#4DCFDF" opacity="0.58"/>
    <rect x="153" y="52" width="4"   height="3.5" rx="0.5" fill="#4DCFDF" opacity="0.58"/>
    <rect x="133" y="63" width="34"  height="2"   rx="0"   fill="#0D6B7A" opacity="0.38"/>

    <!-- Funnel -->
    <rect x="150" y="35" width="8"  height="12" rx="1.5" fill="#C0392B"/>
    <rect x="150" y="35" width="8"  height="3"  rx="1"   fill="#041520" opacity="0.42"/>
    <rect x="150" y="43" width="8"  height="2"  rx="0"   fill="#E8A838" opacity="0.92"/>

    <!-- Container column 1: x=24–42, 2 rows -->
    <rect x="24" y="51" width="18" height="14" rx="1" fill="#C0392B"/>
    <line x1="24" y1="57"  x2="42" y2="57"  stroke="white" stroke-width="0.55" opacity="0.20"/>
    <line x1="24" y1="62"  x2="42" y2="62"  stroke="white" stroke-width="0.55" opacity="0.13"/>
    <rect x="24" y="37" width="18" height="14" rx="1" fill="#E8A838"/>
    <line x1="24" y1="43"  x2="42" y2="43"  stroke="white" stroke-width="0.55" opacity="0.20"/>
    <line x1="24" y1="48"  x2="42" y2="48"  stroke="white" stroke-width="0.55" opacity="0.13"/>

    <!-- Container column 2: x=46–64, 3 rows -->
    <rect x="46" y="51" width="18" height="14" rx="1" fill="#E8A838"/>
    <line x1="46" y1="57"  x2="64" y2="57"  stroke="white" stroke-width="0.55" opacity="0.20"/>
    <line x1="46" y1="62"  x2="64" y2="62"  stroke="white" stroke-width="0.55" opacity="0.13"/>
    <rect x="46" y="37" width="18" height="14" rx="1" fill="#C0392B"/>
    <line x1="46" y1="43"  x2="64" y2="43"  stroke="white" stroke-width="0.55" opacity="0.20"/>
    <line x1="46" y1="48"  x2="64" y2="48"  stroke="white" stroke-width="0.55" opacity="0.13"/>
    <rect x="47" y="25" width="16" height="12" rx="1" fill="#22B5C8"/>
    <line x1="47" y1="30"  x2="63" y2="30"  stroke="white" stroke-width="0.55" opacity="0.24"/>

    <!-- Container column 3: x=68–86, 3 rows -->
    <rect x="68" y="51" width="18" height="14" rx="1" fill="#22B5C8"/>
    <line x1="68" y1="57"  x2="86" y2="57"  stroke="white" stroke-width="0.55" opacity="0.20"/>
    <line x1="68" y1="62"  x2="86" y2="62"  stroke="white" stroke-width="0.55" opacity="0.13"/>
    <rect x="68" y="37" width="18" height="14" rx="1" fill="#C0392B"/>
    <line x1="68" y1="43"  x2="86" y2="43"  stroke="white" stroke-width="0.55" opacity="0.20"/>
    <line x1="68" y1="48"  x2="86" y2="48"  stroke="white" stroke-width="0.55" opacity="0.13"/>
    <rect x="69" y="25" width="16" height="12" rx="1" fill="#E8A838"/>
    <line x1="69" y1="30"  x2="85" y2="30"  stroke="white" stroke-width="0.55" opacity="0.20"/>

    <!-- Container column 4: x=90–108, 2 rows -->
    <rect x="90" y="51" width="18" height="14" rx="1" fill="#C0392B"/>
    <line x1="90"  y1="57" x2="108" y2="57" stroke="white" stroke-width="0.55" opacity="0.20"/>
    <line x1="90"  y1="62" x2="108" y2="62" stroke="white" stroke-width="0.55" opacity="0.13"/>
    <rect x="90" y="37" width="18" height="14" rx="1" fill="#22B5C8"/>
    <line x1="90"  y1="43" x2="108" y2="43" stroke="white" stroke-width="0.55" opacity="0.20"/>
    <line x1="90"  y1="48" x2="108" y2="48" stroke="white" stroke-width="0.55" opacity="0.13"/>

    <!-- Container column 5: x=112–128, 1 row (tapers to bridge) -->
    <rect x="112" y="51" width="16" height="14" rx="1" fill="#E8A838"/>
    <line x1="112" y1="57" x2="128" y2="57" stroke="white" stroke-width="0.55" opacity="0.20"/>
    <line x1="112" y1="62" x2="128" y2="62" stroke="white" stroke-width="0.55" opacity="0.13"/>

  </g>

  <!-- ═══════════════════════════════════════════════════════
       WORDMARK + TAGLINE
       ═══════════════════════════════════════════════════════ -->

  <!-- Thin teal separator between icon and text -->
  <line x1="93" y1="16" x2="93" y2="54"
        stroke="#1B9AAA" stroke-width="1" opacity="0.30"/>

  <!-- Primary wordmark: PORTGUARD -->
  <text x="102" y="38"
        font-family="Inter, -apple-system, BlinkMacSystemFont, 'Segoe UI', sans-serif"
        font-size="25"
        font-weight="800"
        letter-spacing="2.2"
        fill="#EDF2F8">PORTGUARD</text>

  <!-- Tagline: smaller, muted, tracked -->
  <text x="103" y="52"
        font-family="Inter, -apple-system, BlinkMacSystemFont, 'Segoe UI', sans-serif"
        font-size="9"
        font-weight="500"
        letter-spacing="1.6"
        fill="#4A6880">Autonomous Customs Intelligence</text>

</svg>
